<svg xmlns="http://www.w3.org/2000/svg" width="85.236" height="70.536" viewBox="0 0 85.236 70.536">
  <g id="그룹_179529" data-name="그룹 179529" transform="translate(-10669 -5265)">
    <g id="사각형_110005" data-name="사각형 110005" transform="translate(10682 5265)" fill="#fff" stroke="#cbcbcb" stroke-width="1">
      <rect width="24.909" height="19.927" stroke="none"/>
      <rect x="0.5" y="0.5" width="23.909" height="18.927" fill="none"/>
    </g>
    <g id="사각형_110010" data-name="사각형 110010" transform="translate(10682 5283.682)" fill="#fff" stroke="#cbcbcb" stroke-width="1">
      <rect width="24.909" height="19.927" stroke="none"/>
      <rect x="0.5" y="0.5" width="23.909" height="18.927" fill="none"/>
    </g>
    <g id="사각형_110013" data-name="사각형 110013" transform="translate(10682 5302.608)" fill="#fff" stroke="#cbcbcb" stroke-width="1">
      <rect width="24.909" height="19.927" stroke="none"/>
      <rect x="0.5" y="0.5" width="23.909" height="18.927" fill="none"/>
    </g>
    <g id="사각형_110006" data-name="사각형 110006" transform="translate(10705.664 5265)" fill="#fff" stroke="#cbcbcb" stroke-width="1">
      <rect width="24.909" height="19.927" stroke="none"/>
      <rect x="0.5" y="0.5" width="23.909" height="18.927" fill="none"/>
    </g>
    <g id="사각형_110008" data-name="사각형 110008" transform="translate(10705.664 5283.682)" fill="#fff" stroke="#cbcbcb" stroke-width="1">
      <rect width="24.909" height="19.927" stroke="none"/>
      <rect x="0.5" y="0.5" width="23.909" height="18.927" fill="none"/>
    </g>
    <g id="사각형_110011" data-name="사각형 110011" transform="translate(10705.664 5302.608)" fill="#fff" stroke="#cbcbcb" stroke-width="1">
      <rect width="24.909" height="19.927" stroke="none"/>
      <rect x="0.5" y="0.5" width="23.909" height="18.927" fill="none"/>
    </g>
    <g id="사각형_110007" data-name="사각형 110007" transform="translate(10729.327 5265)" fill="#fff" stroke="#cbcbcb" stroke-width="1">
      <rect width="24.909" height="19.927" stroke="none"/>
      <rect x="0.5" y="0.5" width="23.909" height="18.927" fill="none"/>
    </g>
    <g id="사각형_110009" data-name="사각형 110009" transform="translate(10729.327 5283.682)" fill="#81e356" stroke="#cbcbcb" stroke-width="1">
      <rect width="24.909" height="19.927" stroke="none"/>
      <rect x="0.5" y="0.5" width="23.909" height="18.927" fill="none"/>
    </g>
    <g id="사각형_110012" data-name="사각형 110012" transform="translate(10729.327 5302.608)" fill="#fff" stroke="#cbcbcb" stroke-width="1">
      <rect width="24.909" height="19.927" stroke="none"/>
      <rect x="0.5" y="0.5" width="23.909" height="18.927" fill="none"/>
    </g>
    <text id="역량" transform="translate(10685.8 5333.536)" fill="#222" font-size="10" font-family="Pretendard-Medium, Pretendard" font-weight="500" letter-spacing="-0.025em"><tspan x="0" y="0">역량</tspan></text>
    <text id="성과" transform="translate(10679 5321.536) rotate(-90)" fill="#222" font-size="10" font-family="Pretendard-Medium, Pretendard" font-weight="500" letter-spacing="-0.025em"><tspan x="0" y="0">성과</tspan></text>
  </g>
</svg>
