<svg xmlns="http://www.w3.org/2000/svg" width="72.235" height="57.536" viewBox="0 0 72.235 57.536">
  <g id="그룹_179519" data-name="그룹 179519" transform="translate(-10811 -5178.464)">
    <g id="사각형_110020" data-name="사각형 110020" transform="translate(10811 5178.464)" fill="#fff" stroke="#cbcbcb" stroke-width="1">
      <rect width="24.909" height="19.927" stroke="none"/>
      <rect x="0.5" y="0.5" width="23.909" height="18.927" fill="none"/>
    </g>
    <g id="사각형_110029" data-name="사각형 110029" transform="translate(10811 5178.464)" fill="#fff" stroke="#cbcbcb" stroke-width="1">
      <rect width="24.909" height="19.927" stroke="none"/>
      <rect x="0.5" y="0.5" width="23.909" height="18.927" fill="none"/>
    </g>
    <g id="사각형_110021" data-name="사각형 110021" transform="translate(10811 5197.146)" fill="#fff" stroke="#cbcbcb" stroke-width="1">
      <rect width="24.909" height="19.927" stroke="none"/>
      <rect x="0.5" y="0.5" width="23.909" height="18.927" fill="none"/>
    </g>
    <g id="사각형_110030" data-name="사각형 110030" transform="translate(10811 5197.146)" fill="#fff" stroke="#cbcbcb" stroke-width="1">
      <rect width="24.909" height="19.927" stroke="none"/>
      <rect x="0.5" y="0.5" width="23.909" height="18.927" fill="none"/>
    </g>
    <g id="사각형_110022" data-name="사각형 110022" transform="translate(10811 5216.073)" fill="#fff" stroke="#cbcbcb" stroke-width="1">
      <rect width="24.909" height="19.927" stroke="none"/>
      <rect x="0.5" y="0.5" width="23.909" height="18.927" fill="none"/>
    </g>
    <g id="사각형_110031" data-name="사각형 110031" transform="translate(10811 5216.073)" fill="#81e356" stroke="#cbcbcb" stroke-width="1">
      <rect width="24.909" height="19.927" stroke="none"/>
      <rect x="0.5" y="0.5" width="23.909" height="18.927" fill="none"/>
    </g>
    <g id="사각형_110016" data-name="사각형 110016" transform="translate(10834.664 5178.464)" fill="#fff" stroke="#cbcbcb" stroke-width="1">
      <rect width="24.909" height="19.927" stroke="none"/>
      <rect x="0.5" y="0.5" width="23.909" height="18.927" fill="none"/>
    </g>
    <g id="사각형_110025" data-name="사각형 110025" transform="translate(10834.664 5178.464)" fill="#fff" stroke="#cbcbcb" stroke-width="1">
      <rect width="24.909" height="19.927" stroke="none"/>
      <rect x="0.5" y="0.5" width="23.909" height="18.927" fill="none"/>
    </g>
    <g id="사각형_110017" data-name="사각형 110017" transform="translate(10834.664 5197.146)" fill="#fff" stroke="#cbcbcb" stroke-width="1">
      <rect width="24.909" height="19.927" stroke="none"/>
      <rect x="0.5" y="0.5" width="23.909" height="18.927" fill="none"/>
    </g>
    <g id="사각형_110026" data-name="사각형 110026" transform="translate(10834.664 5197.146)" fill="#fff" stroke="#cbcbcb" stroke-width="1">
      <rect width="24.909" height="19.927" stroke="none"/>
      <rect x="0.5" y="0.5" width="23.909" height="18.927" fill="none"/>
    </g>
    <g id="사각형_110018" data-name="사각형 110018" transform="translate(10834.664 5216.073)" fill="#fff" stroke="#cbcbcb" stroke-width="1">
      <rect width="24.909" height="19.927" stroke="none"/>
      <rect x="0.5" y="0.5" width="23.909" height="18.927" fill="none"/>
    </g>
    <g id="사각형_110027" data-name="사각형 110027" transform="translate(10834.664 5216.073)" fill="#fff" stroke="#cbcbcb" stroke-width="1">
      <rect width="24.909" height="19.927" stroke="none"/>
      <rect x="0.5" y="0.5" width="23.909" height="18.927" fill="none"/>
    </g>
    <g id="사각형_110014" data-name="사각형 110014" transform="translate(10858.327 5178.464)" fill="#81e356" stroke="#cbcbcb" stroke-width="1">
      <rect width="24.909" height="19.927" stroke="none"/>
      <rect x="0.5" y="0.5" width="23.909" height="18.927" fill="none"/>
    </g>
    <g id="사각형_110023" data-name="사각형 110023" transform="translate(10858.327 5178.464)" fill="#fff" stroke="#cbcbcb" stroke-width="1">
      <rect width="24.909" height="19.927" stroke="none"/>
      <rect x="0.5" y="0.5" width="23.909" height="18.927" fill="none"/>
    </g>
    <g id="사각형_110015" data-name="사각형 110015" transform="translate(10858.327 5197.146)" fill="#fff" stroke="#cbcbcb" stroke-width="1">
      <rect width="24.909" height="19.927" stroke="none"/>
      <rect x="0.5" y="0.5" width="23.909" height="18.927" fill="none"/>
    </g>
    <g id="사각형_110024" data-name="사각형 110024" transform="translate(10858.327 5197.146)" fill="#fff" stroke="#cbcbcb" stroke-width="1">
      <rect width="24.909" height="19.927" stroke="none"/>
      <rect x="0.5" y="0.5" width="23.909" height="18.927" fill="none"/>
    </g>
    <g id="사각형_110019" data-name="사각형 110019" transform="translate(10858.327 5216.073)" fill="#fff" stroke="#cbcbcb" stroke-width="1">
      <rect width="24.909" height="19.927" stroke="none"/>
      <rect x="0.5" y="0.5" width="23.909" height="18.927" fill="none"/>
    </g>
    <g id="사각형_110028" data-name="사각형 110028" transform="translate(10858.327 5216.073)" fill="#fff" stroke="#cbcbcb" stroke-width="1">
      <rect width="24.909" height="19.927" stroke="none"/>
      <rect x="0.5" y="0.5" width="23.909" height="18.927" fill="none"/>
    </g>
  </g>
</svg>
