<svg xmlns="http://www.w3.org/2000/svg" width="72.236" height="57.536" viewBox="0 0 72.236 57.536">
  <g id="그룹_179512" data-name="그룹 179512" transform="translate(-10207 -5178.464)">
    <g id="사각형_110020" data-name="사각형 110020" transform="translate(10207 5178.464)" fill="#fff" stroke="#cbcbcb" stroke-width="1">
      <rect width="24.909" height="19.927" stroke="none"/>
      <rect x="0.5" y="0.5" width="23.909" height="18.927" fill="none"/>
    </g>
    <g id="사각형_110029" data-name="사각형 110029" transform="translate(10207 5178.464)" fill="#fff" stroke="#cbcbcb" stroke-width="1">
      <rect width="24.909" height="19.927" stroke="none"/>
      <rect x="0.5" y="0.5" width="23.909" height="18.927" fill="none"/>
    </g>
    <g id="사각형_110021" data-name="사각형 110021" transform="translate(10207 5197.146)" fill="#fff" stroke="#cbcbcb" stroke-width="1">
      <rect width="24.909" height="19.927" stroke="none"/>
      <rect x="0.5" y="0.5" width="23.909" height="18.927" fill="none"/>
    </g>
    <g id="사각형_110030" data-name="사각형 110030" transform="translate(10207 5197.146)" fill="#fff" stroke="#cbcbcb" stroke-width="1">
      <rect width="24.909" height="19.927" stroke="none"/>
      <rect x="0.5" y="0.5" width="23.909" height="18.927" fill="none"/>
    </g>
    <g id="사각형_110022" data-name="사각형 110022" transform="translate(10207 5216.073)" fill="#fff" stroke="#cbcbcb" stroke-width="1">
      <rect width="24.909" height="19.927" stroke="none"/>
      <rect x="0.5" y="0.5" width="23.909" height="18.927" fill="none"/>
    </g>
    <g id="사각형_110031" data-name="사각형 110031" transform="translate(10207 5216.073)" fill="#fff" stroke="#cbcbcb" stroke-width="1">
      <rect width="24.909" height="19.927" stroke="none"/>
      <rect x="0.5" y="0.5" width="23.909" height="18.927" fill="none"/>
    </g>
    <g id="사각형_110016" data-name="사각형 110016" transform="translate(10230.664 5178.464)" fill="#fff" stroke="#cbcbcb" stroke-width="1">
      <rect width="24.909" height="19.927" stroke="none"/>
      <rect x="0.5" y="0.5" width="23.909" height="18.927" fill="none"/>
    </g>
    <g id="사각형_110025" data-name="사각형 110025" transform="translate(10230.664 5178.464)" fill="#fff" stroke="#cbcbcb" stroke-width="1">
      <rect width="24.909" height="19.927" stroke="none"/>
      <rect x="0.5" y="0.5" width="23.909" height="18.927" fill="none"/>
    </g>
    <g id="사각형_110017" data-name="사각형 110017" transform="translate(10230.664 5197.146)" fill="#fff" stroke="#cbcbcb" stroke-width="1">
      <rect width="24.909" height="19.927" stroke="none"/>
      <rect x="0.5" y="0.5" width="23.909" height="18.927" fill="none"/>
    </g>
    <g id="사각형_110026" data-name="사각형 110026" transform="translate(10230.664 5197.146)" fill="#fff" stroke="#cbcbcb" stroke-width="1">
      <rect width="24.909" height="19.927" stroke="none"/>
      <rect x="0.5" y="0.5" width="23.909" height="18.927" fill="none"/>
    </g>
    <g id="사각형_110018" data-name="사각형 110018" transform="translate(10230.664 5216.073)" fill="#fff" stroke="#cbcbcb" stroke-width="1">
      <rect width="24.909" height="19.927" stroke="none"/>
      <rect x="0.5" y="0.5" width="23.909" height="18.927" fill="none"/>
    </g>
    <g id="사각형_110027" data-name="사각형 110027" transform="translate(10230.664 5216.073)" fill="#fff" stroke="#cbcbcb" stroke-width="1">
      <rect width="24.909" height="19.927" stroke="none"/>
      <rect x="0.5" y="0.5" width="23.909" height="18.927" fill="none"/>
    </g>
    <g id="사각형_110014" data-name="사각형 110014" transform="translate(10254.327 5178.464)" fill="#81e356" stroke="#cbcbcb" stroke-width="1">
      <rect width="24.909" height="19.927" stroke="none"/>
      <rect x="0.5" y="0.5" width="23.909" height="18.927" fill="none"/>
    </g>
    <g id="패스_53662" data-name="패스 53662" transform="translate(10254.327 5178.464)" fill="#fff">
      <path d="M 24.40909576416016 19.42727661132812 L 0.5000050067901611 19.42727661132812 L 0.5000050067901611 0.4999963939189911 L 24.40909576416016 0.4999963939189911 L 24.40909576416016 19.42727661132812 Z" stroke="none"/>
      <path d="M 0.9999942779541016 0.9999961853027344 L 0.9999942779541016 18.92727661132812 L 23.90908432006836 18.92727661132812 L 23.90908432006836 0.9999961853027344 L 0.9999942779541016 0.9999961853027344 M -5.7220458984375e-06 -3.814697265625e-06 L 24.90908432006836 -3.814697265625e-06 L 24.90908432006836 19.92727661132812 L -5.7220458984375e-06 19.92727661132812 L -5.7220458984375e-06 -3.814697265625e-06 Z" stroke="none" fill="#cbcbcb"/>
    </g>
    <g id="사각형_110015" data-name="사각형 110015" transform="translate(10254.327 5197.146)" fill="#fff" stroke="#cbcbcb" stroke-width="1">
      <rect width="24.909" height="19.927" stroke="none"/>
      <rect x="0.5" y="0.5" width="23.909" height="18.927" fill="none"/>
    </g>
    <g id="사각형_110024" data-name="사각형 110024" transform="translate(10254.327 5197.146)" fill="#81e356" stroke="#cbcbcb" stroke-width="1">
      <rect width="24.909" height="19.927" stroke="none"/>
      <rect x="0.5" y="0.5" width="23.909" height="18.927" fill="none"/>
    </g>
    <g id="사각형_110019" data-name="사각형 110019" transform="translate(10254.327 5216.073)" fill="#fff" stroke="#cbcbcb" stroke-width="1">
      <rect width="24.909" height="19.927" stroke="none"/>
      <rect x="0.5" y="0.5" width="23.909" height="18.927" fill="none"/>
    </g>
    <g id="사각형_110028" data-name="사각형 110028" transform="translate(10254.327 5216.073)" fill="#fff" stroke="#cbcbcb" stroke-width="1">
      <rect width="24.909" height="19.927" stroke="none"/>
      <rect x="0.5" y="0.5" width="23.909" height="18.927" fill="none"/>
    </g>
  </g>
</svg>
