<svg xmlns="http://www.w3.org/2000/svg" width="72.236" height="57.536" viewBox="0 0 72.236 57.536">
  <g id="그룹_179510" data-name="그룹 179510" transform="translate(-10034 -5178.464)">
    <g id="사각형_110005" data-name="사각형 110005" transform="translate(10034 5178.464)" fill="#fff" stroke="#cbcbcb" stroke-width="1">
      <rect width="24.909" height="19.927" stroke="none"/>
      <rect x="0.5" y="0.5" width="23.909" height="18.927" fill="none"/>
    </g>
    <g id="사각형_110010" data-name="사각형 110010" transform="translate(10034 5197.146)" fill="#fff" stroke="#cbcbcb" stroke-width="1">
      <rect width="24.909" height="19.927" stroke="none"/>
      <rect x="0.5" y="0.5" width="23.909" height="18.927" fill="none"/>
    </g>
    <g id="사각형_110013" data-name="사각형 110013" transform="translate(10034 5216.073)" fill="#fff" stroke="#cbcbcb" stroke-width="1">
      <rect width="24.909" height="19.927" stroke="none"/>
      <rect x="0.5" y="0.5" width="23.909" height="18.927" fill="none"/>
    </g>
    <g id="사각형_110006" data-name="사각형 110006" transform="translate(10057.664 5178.464)" fill="#fff" stroke="#cbcbcb" stroke-width="1">
      <rect width="24.909" height="19.927" stroke="none"/>
      <rect x="0.5" y="0.5" width="23.909" height="18.927" fill="none"/>
    </g>
    <g id="사각형_110008" data-name="사각형 110008" transform="translate(10057.664 5197.146)" fill="#fff" stroke="#cbcbcb" stroke-width="1">
      <rect width="24.909" height="19.927" stroke="none"/>
      <rect x="0.5" y="0.5" width="23.909" height="18.927" fill="none"/>
    </g>
    <g id="사각형_110011" data-name="사각형 110011" transform="translate(10057.664 5216.073)" fill="#fff" stroke="#cbcbcb" stroke-width="1">
      <rect width="24.909" height="19.927" stroke="none"/>
      <rect x="0.5" y="0.5" width="23.909" height="18.927" fill="none"/>
    </g>
    <g id="사각형_110007" data-name="사각형 110007" transform="translate(10081.327 5178.464)" fill="#fff" stroke="#cbcbcb" stroke-width="1">
      <rect width="24.909" height="19.927" stroke="none"/>
      <rect x="0.5" y="0.5" width="23.909" height="18.927" fill="none"/>
    </g>
    <g id="사각형_110009" data-name="사각형 110009" transform="translate(10081.327 5197.146)" fill="#fff" stroke="#cbcbcb" stroke-width="1">
      <rect width="24.909" height="19.927" stroke="none"/>
      <rect x="0.5" y="0.5" width="23.909" height="18.927" fill="none"/>
    </g>
    <g id="사각형_110012" data-name="사각형 110012" transform="translate(10081.327 5216.073)" fill="#fff" stroke="#cbcbcb" stroke-width="1">
      <rect width="24.909" height="19.927" stroke="none"/>
      <rect x="0.5" y="0.5" width="23.909" height="18.927" fill="none"/>
    </g>
  </g>
</svg>
