<svg id="그룹_25821" data-name="그룹 25821" xmlns="http://www.w3.org/2000/svg" width="16" height="16" viewBox="0 0 16 16">
  <path id="패스_4012" data-name="패스 4012" d="M8,0A8,8,0,1,1,0,8,8,8,0,0,1,8,0Z" fill="#217aef"/>
  <g id="그룹_2426" data-name="그룹 2426" transform="translate(3.309 3.309)">
    <path id="패스_3976" data-name="패스 3976" d="M0,0H9.442V9.442H0Z" fill="none"/>
    <path id="패스_3981" data-name="패스 3981" d="M5.051.5H0A.5.5,0,0,1-.5,0,.5.5,0,0,1,0-.5H5.051a.5.5,0,0,1,.5.5A.5.5,0,0,1,5.051.5Z" transform="translate(2.191 1.985)" fill="#fff"/>
    <path id="패스_3981-2" data-name="패스 3981" d="M5.051.5H0A.5.5,0,0,1-.5,0,.5.5,0,0,1,0-.5H5.051a.5.5,0,0,1,.5.5A.5.5,0,0,1,5.051.5Z" transform="translate(2.191 7.792)" fill="#fff"/>
    <path id="패스_3982" data-name="패스 3982" d="M0,6.307a.5.5,0,0,1-.5-.5V0A.5.5,0,0,1,0-.5.5.5,0,0,1,.5,0V5.807A.5.5,0,0,1,0,6.307Z" transform="translate(2.191 1.985)" fill="#fff"/>
    <path id="패스_3982-2" data-name="패스 3982" d="M0,6.307a.5.5,0,0,1-.5-.5V0A.5.5,0,0,1,0-.5.5.5,0,0,1,.5,0V5.807A.5.5,0,0,1,0,6.307Z" transform="translate(7.191 1.985)" fill="#fff"/>
    <path id="패스_3981-3" data-name="패스 3981" d="M1.382.5H-.331C-.424.5-.5.276-.5,0s.076-.5.17-.5H1.382c.094,0,.17.224.17.5S1.476.5,1.382.5Z" transform="translate(4.195 3.985)" fill="#fff"/>
    <path id="패스_3981-4" data-name="패스 3981" d="M1.382.5H-.331C-.424.5-.5.276-.5,0s.076-.5.17-.5H1.382c.094,0,.17.224.17.5S1.476.5,1.382.5Z" transform="translate(4.195 5.985)" fill="#fff"/>
  </g>
</svg>
