<svg id="그룹_179681" data-name="그룹 179681" xmlns="http://www.w3.org/2000/svg" xmlns:xlink="http://www.w3.org/1999/xlink" width="17.401" height="15.331" viewBox="0 0 17.401 15.331">
  <defs>
    <clipPath id="clip-path">
      <rect id="사각형_109851" data-name="사각형 109851" width="17.401" height="15.331" fill="#656f74"/>
    </clipPath>
  </defs>
  <g id="그룹_179338" data-name="그룹 179338" clip-path="url(#clip-path)">
    <path id="패스_13574" data-name="패스 13574" d="M15.4,7.144v-5A2.148,2.148,0,0,0,13.258,0H2.145A2.147,2.147,0,0,0,0,2.145v9.631a2.147,2.147,0,0,0,2.145,2.145H9.685A4.464,4.464,0,1,0,15.4,7.144M8.469,10.865a4.439,4.439,0,0,0,.346,1.724H2.145a.812.812,0,0,1-.811-.812V2.145a.812.812,0,0,1,.811-.812H13.258a.813.813,0,0,1,.812.812v4.4a4.451,4.451,0,0,0-5.6,4.315m7.218-1.052-3,3a.662.662,0,0,1-.94,0l-1.637-1.637a.664.664,0,1,1,.94-.94L12.222,11.4l2.526-2.527a.664.664,0,1,1,.94.94" transform="translate(0 0)" fill="#656f74"/>
    <path id="패스_13575" data-name="패스 13575" d="M9.981,5.4H4.225a.37.37,0,0,0,0,.741H9.981a.37.37,0,1,0,0-.741" transform="translate(-1 -1.401)" fill="#656f74"/>
    <path id="패스_13576" data-name="패스 13576" d="M8.7,9.9H4.224a.37.37,0,1,0,0,.741H8.7a.37.37,0,1,0,0-.741" transform="translate(-1 -2.569)" fill="#656f74"/>
  </g>
</svg>
