<svg xmlns="http://www.w3.org/2000/svg" width="26" height="26" viewBox="0 0 26 26">
  <defs>
    <style>
      .cls-1 {
        fill: none;
      }

      .cls-2 {
        fill: #3480e9;
      }
    </style>
  </defs>
  <g id="그룹_25662" data-name="그룹 25662" transform="translate(-1733 -20)">
    <path id="패스_40" data-name="패스 40" class="cls-1" d="M0,0H26V26H0Z" transform="translate(1733 20)"/>
    <g id="그룹_1244" data-name="그룹 1244" transform="translate(1736.25 23.25)">
      <path id="합치기_13" data-name="합치기 13" class="cls-2" d="M-6923.293-8092.25a1.125,1.125,0,0,0-.66-.77,1.128,1.128,0,0,0-1.01.078,2.63,2.63,0,0,1-1.368.4,2.64,2.64,0,0,1-2.29-1.368,2.565,2.565,0,0,1,.061-2.624,1.125,1.125,0,0,0,.077-1.01,1.121,1.121,0,0,0-.77-.657,2.58,2.58,0,0,1-2-2.544,2.578,2.578,0,0,1,2-2.543,1.123,1.123,0,0,0,.77-.659,1.116,1.116,0,0,0-.079-1.008,2.568,2.568,0,0,1-.061-2.626,2.647,2.647,0,0,1,2.292-1.368,2.591,2.591,0,0,1,1.368.4,1.112,1.112,0,0,0,.58.165,1.117,1.117,0,0,0,1.087-.855,2.577,2.577,0,0,1,2.542-2,2.58,2.58,0,0,1,2.544,2,1.122,1.122,0,0,0,.658.77,1.126,1.126,0,0,0,1.01-.08,2.645,2.645,0,0,1,1.368-.393,2.646,2.646,0,0,1,2.292,1.366,2.571,2.571,0,0,1-.061,2.626,1.126,1.126,0,0,0-.08,1.01,1.121,1.121,0,0,0,.77.657,2.578,2.578,0,0,1,2,2.543,2.58,2.58,0,0,1-2,2.544,1.121,1.121,0,0,0-.77.657,1.119,1.119,0,0,0,.078,1.01,2.571,2.571,0,0,1,.061,2.626,2.646,2.646,0,0,1-2.291,1.368,2.591,2.591,0,0,1-1.368-.4,1.126,1.126,0,0,0-1.01-.077,1.118,1.118,0,0,0-.658.767,2.578,2.578,0,0,1-2.544,2A2.576,2.576,0,0,1-6923.293-8092.25Zm-.085-2.156a2.63,2.63,0,0,1,1.543,1.8,1.079,1.079,0,0,0,1.085.855,1.079,1.079,0,0,0,1.087-.855,2.619,2.619,0,0,1,1.541-1.8,2.611,2.611,0,0,1,1-.2,2.618,2.618,0,0,1,1.362.383,1.127,1.127,0,0,0,.588.175,1.159,1.159,0,0,0,.983-.6,1.056,1.056,0,0,0-.035-1.109,2.624,2.624,0,0,1-.183-2.365,2.622,2.622,0,0,1,1.8-1.541,1.077,1.077,0,0,0,.853-1.087,1.077,1.077,0,0,0-.853-1.085,2.626,2.626,0,0,1-1.8-1.543,2.628,2.628,0,0,1,.181-2.363,1.052,1.052,0,0,0,.035-1.109,1.161,1.161,0,0,0-.983-.6,1.119,1.119,0,0,0-.586.177,2.644,2.644,0,0,1-1.364.38,2.608,2.608,0,0,1-1-.2,2.635,2.635,0,0,1-1.543-1.8,1.074,1.074,0,0,0-1.085-.853,1.077,1.077,0,0,0-1.085.853,2.615,2.615,0,0,1-2.544,2,2.615,2.615,0,0,1-1.36-.385,1.135,1.135,0,0,0-.588-.175,1.16,1.16,0,0,0-.985.6,1.061,1.061,0,0,0,.035,1.109,2.62,2.62,0,0,1,.183,2.363,2.62,2.62,0,0,1-1.8,1.543,1.077,1.077,0,0,0-.853,1.085,1.077,1.077,0,0,0,.853,1.087,2.626,2.626,0,0,1,1.8,1.541,2.626,2.626,0,0,1-.183,2.363,1.057,1.057,0,0,0-.035,1.109,1.159,1.159,0,0,0,.983.6,1.13,1.13,0,0,0,.588-.175,2.61,2.61,0,0,1,1.362-.383A2.6,2.6,0,0,1-6923.378-8094.406Zm-1.372-6.345a4.006,4.006,0,0,1,4-4,4,4,0,0,1,4,4,4,4,0,0,1-4,4A4,4,0,0,1-6924.75-8100.75Zm1.5,0a2.5,2.5,0,0,0,2.5,2.5,2.5,2.5,0,0,0,2.5-2.5,2.5,2.5,0,0,0-2.5-2.5A2.5,2.5,0,0,0-6923.25-8100.75Z" transform="translate(6930.5 8110.5)"/>
    </g>
  </g>
</svg>
