<svg xmlns="http://www.w3.org/2000/svg" width="32" height="32" viewBox="0 0 32 32">
  <g id="그룹_179915" data-name="그룹 179915" transform="translate(-1640 -1062)">
    <rect id="사각형_110265" data-name="사각형 110265" width="32" height="32" transform="translate(1640 1062)" fill="none"/>
    <g id="그룹_179914" data-name="그룹 179914" transform="translate(2.851 1.436)">
      <g id="타원_13154" data-name="타원 13154" transform="translate(1649.149 1065.564)" fill="none" stroke="#4d5764" stroke-width="1.5">
        <circle cx="4.5" cy="4.5" r="4.5" stroke="none"/>
        <circle cx="4.5" cy="4.5" r="3.75" stroke="#1e87bd" fill="none"/>
      </g>
      <g id="패스_53810" data-name="패스 53810" transform="translate(1645 1074.88)" fill="none">
        <path d="M8.453,0a8.3,8.3,0,0,1,8.453,8.129c0,4.49-16.907,4.49-16.907,0A8.3,8.3,0,0,1,8.453,0Z" stroke="none"/>
        <path d="M 8.453344345092773 1.500003814697266 C 4.619264602661133 1.500003814697266 1.500004768371582 4.473883628845215 1.500004768371582 8.129283905029297 C 1.500004768371582 8.342313766479492 1.937384605407715 8.814104080200195 3.142324447631836 9.240743637084961 C 4.498874664306641 9.721063613891602 6.434664726257324 9.996543884277344 8.453344345092773 9.996543884277344 C 10.47202491760254 9.996543884277344 12.40781402587891 9.721063613891602 13.76436424255371 9.240743637084961 C 14.96930408477783 8.814104080200195 15.40668487548828 8.342313766479492 15.40668487548828 8.129283905029297 C 15.40668487548828 4.473883628845215 12.28742408752441 1.500003814697266 8.453344345092773 1.500003814697266 M 8.453344345092773 3.814697265625e-06 C 13.12199401855469 3.814697265625e-06 16.90668487548828 3.639603614807129 16.90668487548828 8.129283905029297 C 16.90668487548828 12.61896419525146 1.9073486328125e-06 12.61896324157715 3.814697265625e-06 8.129283905029297 C 3.814697265625e-06 3.639603614807129 3.784694671630859 3.814697265625e-06 8.453344345092773 3.814697265625e-06 Z" stroke="none" fill="#1e87bd"/>
      </g>
    </g>
  </g>
</svg>