<svg id="그룹_178361" data-name="그룹 178361" xmlns="http://www.w3.org/2000/svg" width="18" height="18" viewBox="0 0 18 18">
  <path id="패스_53652" data-name="패스 53652" d="M0,0H18V18H0Z" fill="none"/>
  <g id="그룹_179570" data-name="그룹 179570">
    <path id="패스_53653" data-name="패스 53653" d="M7.264,12.467a.837.837,0,0,1-.594-.25L6.655,12.2,2.627,7.7a.5.5,0,0,1-.056-.591L3.993,4.743A.5.5,0,0,1,4.421,4.5h5.686a.5.5,0,0,1,.429.243l1.421,2.368A.5.5,0,0,1,11.9,7.7L7.874,12.2l-.015.017A.837.837,0,0,1,7.264,12.467ZM3.618,7.309l3.646,4.073L10.91,7.309,9.824,5.5H4.7Z" transform="translate(1.736 1.783)" fill="#ffa7a7"/>
    <path id="패스_53654" data-name="패스 53654" d="M8.949,10.818a.5.5,0,0,1-.37-.164L7.63,9.611a.5.5,0,0,1-.059-.594l.285-.474a.5.5,0,0,1,.857.515l-.093.156.7.769a.5.5,0,0,1-.37.836Z" transform="translate(-0.896 -0.219)" fill="#ffa7a7"/>
    <path id="선_3934" data-name="선 3934" d="M.5,3h-1V0h1Z" transform="translate(9 2.5)" fill="#ffa7a7"/>
    <path id="선_3936" data-name="선 3936" d="M1.1,2.3-.4.3.4-.3l1.5,2Z" transform="translate(4.5 3.5)" fill="#ffa7a7"/>
    <path id="선_3935" data-name="선 3935" d="M.4,2.3l-.8-.6,1.5-2,.8.6Z" transform="translate(12 3.5)" fill="#ffa7a7"/>
  </g>
</svg>
