<svg xmlns="http://www.w3.org/2000/svg" width="32" height="32" viewBox="0 0 32 32">
  <g id="그룹_179919" data-name="그룹 179919" transform="translate(-1716 -1062)">
    <path id="패스_53815" data-name="패스 53815" d="M0,0H32V32H0Z" transform="translate(1716 1062)" fill="none"/>
    <path id="합치기_30" data-name="합치기 30" d="M2004.665,5310.621a3.68,3.68,0,0,1-3.052-2.627h-5.171a1.384,1.384,0,0,1-1.061-.448,1.291,1.291,0,0,1-.38-.9v-2.718a2.943,2.943,0,0,1,.384-1.346,3.955,3.955,0,0,1,1.065-1.375l1.45-1.355v-4.069c0-4.2,4.086-7.512,8.743-6.639a7.028,7.028,0,0,1,4.156,2.474l0,.005a7.029,7.029,0,0,1,.666.973c.027.048.044.1.071.149a7,7,0,0,1,.425.924,6.281,6.281,0,0,1,.172.626c.047.174.108.342.14.522a6.687,6.687,0,0,1,.109,1.179c0,.015.005.031.005.047v3.812l1.45,1.355a3.989,3.989,0,0,1,1.06,1.362,2.971,2.971,0,0,1,.389,1.355v2.724a1.318,1.318,0,0,1-.425.949,1.4,1.4,0,0,1-.973.395h-5.215a3.677,3.677,0,0,1-3.525,2.659A3.8,3.8,0,0,1,2004.665,5310.621Zm.195-1.487a2.179,2.179,0,0,0,2.209-1.14h-3.846A2.178,2.178,0,0,0,2004.859,5309.133Zm-5.461-13.354v4.719l-1.963,1.837-.04.032a2.456,2.456,0,0,0-.658.858l-.027.053a1.556,1.556,0,0,0-.211.646v2.568h17.289v-2.568a1.565,1.565,0,0,0-.215-.65l-.027-.053a2.483,2.483,0,0,0-.656-.852l-.04-.032-1.962-1.835v-4.386c0-.007,0-.015,0-.023l0-.044v-.044a5.388,5.388,0,0,0-.084-.921l0-.008c-.005-.032-.028-.109-.047-.172s-.044-.145-.067-.233c-.019-.067-.035-.135-.051-.2-.028-.113-.053-.22-.077-.284l0-.01a5.516,5.516,0,0,0-.336-.721c-.036-.067-.063-.124-.08-.166a5.742,5.742,0,0,0-.5-.722l-.047-.056a5.549,5.549,0,0,0-3.225-1.9,6.645,6.645,0,0,0-1.221-.115A5.534,5.534,0,0,0,1999.4,5295.78Z" transform="translate(-273 -4222)" fill="#4d5764"/>
  </g>
</svg>
