<svg xmlns="http://www.w3.org/2000/svg" xmlns:xlink="http://www.w3.org/1999/xlink" width="17.795" height="15.331" viewBox="0 0 17.795 15.331">
  <defs>
    <clipPath id="clip-path">
      <rect id="사각형_109918" data-name="사각형 109918" width="17.795" height="15.33" fill="#656f74"/>
    </clipPath>
  </defs>
  <g id="그룹_179680" data-name="그룹 179680" clip-path="url(#clip-path)">
    <path id="패스_53738" data-name="패스 53738" d="M13.323,6.387A4.462,4.462,0,0,0,9.829,8.073c-.165-.084-.323-.178-.5-.249a4.331,4.331,0,1,0-5.126,0A6.8,6.8,0,0,0,0,14.108a.673.673,0,1,0,1.346,0q0-.063,0-.127A5.415,5.415,0,0,1,9.177,9.189a4.47,4.47,0,1,0,4.146-2.8M6.775,7.3A2.986,2.986,0,1,1,9.753,4.308,2.986,2.986,0,0,1,6.775,7.3m9.368,2.516L13.11,12.851a.672.672,0,0,1-.951,0L10.5,11.194a.673.673,0,1,1,.951-.951l1.182,1.182,2.557-2.558a.673.673,0,0,1,.951.951" transform="translate(0 0)" fill="#656f74"/>
  </g>
</svg>
