<svg xmlns="http://www.w3.org/2000/svg" width="26" height="26" viewBox="0 0 26 26">
  <defs>
    <style>
      .cls-1 {
        fill: none;
      }

      .cls-2 {
        fill: #9e9e9e;
      }
    </style>
  </defs>
  <g id="그룹_25665" data-name="그룹 25665" transform="translate(-1733 -20)">
    <path id="패스_40" data-name="패스 40" class="cls-1" d="M0,0H26V26H0Z" transform="translate(1733 20)"/>
    <g id="그룹_1244" data-name="그룹 1244" transform="translate(1736.25 23.25)">
      <path id="합치기_15" data-name="합치기 15" class="cls-2" d="M-6923.294-8140.25a1.121,1.121,0,0,0-.658-.77,1.126,1.126,0,0,0-1.009.078,2.64,2.64,0,0,1-1.368.4,2.645,2.645,0,0,1-2.292-1.368,2.57,2.57,0,0,1,.059-2.625,1.119,1.119,0,0,0,.08-1.009,1.124,1.124,0,0,0-.77-.657,2.578,2.578,0,0,1-2-2.543,2.576,2.576,0,0,1,2-2.543,1.124,1.124,0,0,0,.77-.66,1.12,1.12,0,0,0-.078-1.009,2.569,2.569,0,0,1-.062-2.625,2.645,2.645,0,0,1,2.292-1.368,2.6,2.6,0,0,1,1.368.4,1.105,1.105,0,0,0,.58.164,1.117,1.117,0,0,0,1.087-.854,2.579,2.579,0,0,1,2.543-2,2.581,2.581,0,0,1,2.545,2,1.124,1.124,0,0,0,.657.77,1.126,1.126,0,0,0,1.01-.08,2.636,2.636,0,0,1,1.368-.393,2.643,2.643,0,0,1,2.292,1.366,2.565,2.565,0,0,1-.062,2.625,1.127,1.127,0,0,0-.078,1.009,1.128,1.128,0,0,0,.77.66,2.576,2.576,0,0,1,2,2.543,2.577,2.577,0,0,1-2,2.543,1.119,1.119,0,0,0-.768.659,1.109,1.109,0,0,0,.078,1.007,2.575,2.575,0,0,1,.062,2.625,2.645,2.645,0,0,1-2.292,1.368,2.591,2.591,0,0,1-1.368-.393,1.128,1.128,0,0,0-1.01-.078,1.117,1.117,0,0,0-.657.768,2.579,2.579,0,0,1-2.545,2A2.578,2.578,0,0,1-6923.294-8140.25Zm-.084-2.156a2.629,2.629,0,0,1,1.542,1.8,1.078,1.078,0,0,0,1.085.854,1.079,1.079,0,0,0,1.087-.854,2.622,2.622,0,0,1,1.542-1.8,2.589,2.589,0,0,1,1-.2,2.621,2.621,0,0,1,1.361.381,1.12,1.12,0,0,0,.588.176,1.16,1.16,0,0,0,.983-.6,1.053,1.053,0,0,0-.035-1.11,2.629,2.629,0,0,1-.183-2.365,2.624,2.624,0,0,1,1.8-1.542,1.079,1.079,0,0,0,.854-1.085,1.08,1.08,0,0,0-.854-1.087,2.62,2.62,0,0,1-1.8-1.542,2.624,2.624,0,0,1,.182-2.363,1.061,1.061,0,0,0,.035-1.11,1.163,1.163,0,0,0-.985-.6,1.127,1.127,0,0,0-.588.176,2.616,2.616,0,0,1-1.361.383,2.592,2.592,0,0,1-1-.2,2.615,2.615,0,0,1-1.542-1.8,1.077,1.077,0,0,0-1.087-.852,1.076,1.076,0,0,0-1.085.852,2.614,2.614,0,0,1-2.545,2,2.618,2.618,0,0,1-1.36-.385,1.139,1.139,0,0,0-.587-.174,1.156,1.156,0,0,0-.983.6,1.057,1.057,0,0,0,.035,1.11,2.625,2.625,0,0,1,.182,2.363,2.63,2.63,0,0,1-1.8,1.544,1.076,1.076,0,0,0-.854,1.085,1.079,1.079,0,0,0,.854,1.085,2.625,2.625,0,0,1,1.8,1.542,2.625,2.625,0,0,1-.182,2.363,1.063,1.063,0,0,0-.035,1.11,1.16,1.16,0,0,0,.985.6,1.132,1.132,0,0,0,.585-.174,2.626,2.626,0,0,1,1.364-.383A2.628,2.628,0,0,1-6923.378-8142.406Zm-1.372-6.344a4,4,0,0,1,4-4,4.005,4.005,0,0,1,4,4,4,4,0,0,1-4,4A4,4,0,0,1-6924.75-8148.75Zm1.5,0a2.5,2.5,0,0,0,2.5,2.5,2.5,2.5,0,0,0,2.5-2.5,2.5,2.5,0,0,0-2.5-2.5A2.5,2.5,0,0,0-6923.249-8148.75Z" transform="translate(6930.5 8158.5)"/>
    </g>
  </g>
</svg>
