<svg xmlns="http://www.w3.org/2000/svg" width="26" height="26" viewBox="0 0 26 26">
  <defs>
    <style>
      .cls-1 {
        fill: none;
      }

      .cls-2 {
        fill: rgba(255,255,255,0);
      }

      .cls-3 {
        fill: #484c50;
      }
    </style>
  </defs>
  <g id="그룹_25658" data-name="그룹 25658" transform="translate(-1641 -17)">
    <path id="패스_40" data-name="패스 40" class="cls-1" d="M0,0H26V26H0Z" transform="translate(1641 17)"/>
    <g id="그룹_25657" data-name="그룹 25657" transform="translate(-5212 -8172)">
      <rect id="사각형_1844" data-name="사각형 1844" class="cls-2" width="22" height="22" transform="translate(6855 8191)"/>
      <path id="합치기_12" data-name="합치기 12" class="cls-3" d="M2.821,18A2.827,2.827,0,0,1,0,15.172V2.829A2.828,2.828,0,0,1,2.821,0H10A2.828,2.828,0,0,1,12.82,2.829V4.886a.769.769,0,1,1-1.539,0V2.829A1.285,1.285,0,0,0,10,1.543H2.821A1.285,1.285,0,0,0,1.539,2.829V15.172a1.285,1.285,0,0,0,1.282,1.286H10a1.285,1.285,0,0,0,1.282-1.286V13.115a.769.769,0,1,1,1.539,0v2.057A2.827,2.827,0,0,1,10,18ZM15.61,12.632a.773.773,0,0,1,0-1.091l1.763-1.768H4.872a.772.772,0,0,1,0-1.543h12.5L15.61,6.46A.77.77,0,0,1,16.7,5.369l3.077,3.085.019.02.009.009h0a.769.769,0,0,1,.2.461v0c0,.005,0,.011,0,.016v.009s0,.007,0,.01S20,8.994,20,9s0,.013,0,.019,0,.007,0,.01v.009c0,.005,0,.011,0,.016v0a.771.771,0,0,1-.237.5L16.7,12.632a.767.767,0,0,1-1.087,0Z" transform="translate(6856 8193)"/>
    </g>
  </g>
</svg>
