<svg xmlns="http://www.w3.org/2000/svg" width="14.625" height="38.292" viewBox="0 0 14.625 38.292">
  <defs>
    <style>
      .cls-1 {
        fill: #7bb4eb;
      }
    </style>
  </defs>
  <path id="합치기_24" data-name="합치기 24" class="cls-1" d="M10.521,37.292V26.771a1,1,0,0,1,.293-.706l1.812-1.812v-8a1.105,1.105,0,0,0-1.1-1.1H3.1A1.105,1.105,0,0,0,2,16.25v8l1.812,1.812a1,1,0,0,1,.293.706V37.292a1,1,0,1,1-2,0V27.185L.293,25.374A1,1,0,0,1,0,24.666V16.25a3.108,3.108,0,0,1,3.1-3.1h8.417a3.108,3.108,0,0,1,3.1,3.1v8.417a1,1,0,0,1-.292.707l-1.812,1.812V37.292a1,1,0,1,1-2,0ZM2.066,5a5,5,0,1,1,5,5A5.005,5.005,0,0,1,2.066,5Zm2,0a3,3,0,1,0,3-3A3,3,0,0,0,4.065,5Z"/>
</svg>
