<svg xmlns="http://www.w3.org/2000/svg" width="26" height="26" viewBox="0 0 26 26">
  <defs>
    <style>
      .cls-1 {
        fill: none;
      }

      .cls-2 {
        fill: #484c50;
      }
    </style>
  </defs>
  <g id="그룹_25670" data-name="그룹 25670" transform="translate(-6882 -8068)">
    <path id="패스_40" data-name="패스 40" class="cls-1" d="M0,0H26V26H0Z" transform="translate(6882 8068)"/>
    <path id="패스_2861" data-name="패스 2861" class="cls-2" d="M18.812,15.061a11.108,11.108,0,0,1-.558-3.464V8.687a7.488,7.488,0,0,0-6.566-7.523,7.109,7.109,0,0,0-3.014.33A6.926,6.926,0,0,0,6.063,3.027,7.166,7.166,0,0,0,4.3,5.465a7.376,7.376,0,0,0-.628,2.944v3.2a11.078,11.078,0,0,1-.558,3.45l-.87,2.576.7.958h5.1a2.908,2.908,0,0,0,5.815,0h5.1l.7-.958-.853-2.576Zm-6.827,4.581A1.464,1.464,0,0,1,9.5,18.615h2.91a1.366,1.366,0,0,1-.418,1.027Zm-8.028-2.49.54-1.621a12.567,12.567,0,0,0,.644-3.917V8.409a5.726,5.726,0,0,1,.5-2.352,5.831,5.831,0,0,1,3.5-3.17,5.637,5.637,0,0,1,2.4-.261A6.022,6.022,0,0,1,16.789,8.7V11.63a12.084,12.084,0,0,0,.644,3.917l.54,1.62H3.954V17.15Z" transform="translate(6883.75 8069.875)"/>
  </g>
</svg>
