<svg id="그룹_1577" data-name="그룹 1577" xmlns="http://www.w3.org/2000/svg" width="14" height="14" viewBox="0 0 14 14">
  <path id="favorite-line" d="M12.536,16.4a.907.907,0,0,1-.524-.168L8.86,14.019a.089.089,0,0,0-.106,0L5.6,16.234a.9.9,0,0,1-1.065-.017,1.009,1.009,0,0,1-.363-1.051L5.21,11.338a.1.1,0,0,0-.034-.106L2.194,8.773a1.011,1.011,0,0,1-.332-1.091A.944.944,0,0,1,2.739,7l3.8-.151a.1.1,0,0,0,.084-.066l1.31-3.735a.924.924,0,0,1,1.762,0l1.31,3.735a.1.1,0,0,0,.084.066l3.8.151a.944.944,0,0,1,.877.682,1.011,1.011,0,0,1-.332,1.091l-2.983,2.459a.1.1,0,0,0-.034.106l1.035,3.828a1.026,1.026,0,0,1-.17.857A.927.927,0,0,1,12.536,16.4ZM8.81,13.115a.906.906,0,0,1,.52.186l3.152,2.215a.09.09,0,0,0,.111,0,.1.1,0,0,0,.032-.112L11.59,11.577a1.007,1.007,0,0,1,.325-1.041L14.9,8.077a.1.1,0,0,0,.035-.11.093.093,0,0,0-.09-.067l-3.8-.151A.943.943,0,0,1,10.2,7.1L8.886,3.367a.092.092,0,0,0-.177,0L7.411,7.1a.943.943,0,0,1-.845.647l-3.8.151a.093.093,0,0,0-.09.067.1.1,0,0,0,.035.11L5.7,10.536a1.011,1.011,0,0,1,.325,1.041L4.991,15.405a.1.1,0,0,0,.034.106.082.082,0,0,0,.11,0L8.286,13.3a.907.907,0,0,1,.52-.164Z" transform="translate(-1.816 -2.402)"/>
</svg>
