<svg xmlns="http://www.w3.org/2000/svg" width="14.875" height="14.875" viewBox="0 0 14.875 14.875">
  <defs>
    <style>
      .cls-1 {
        fill: #9ca5aa;
      }
    </style>
  </defs>
  <path id="합치기_24" data-name="합치기 24" class="cls-1" d="M-2684.083-1771.124a1.918,1.918,0,0,1-1.916-1.916v-7.082a1.918,1.918,0,0,1,1.916-1.916h1.417a.5.5,0,0,1,.5.5.5.5,0,0,1-.5.5h-1.417a.917.917,0,0,0-.916.916v7.082a.918.918,0,0,0,.916.916H-2677a.918.918,0,0,0,.917-.916v-1.417a.5.5,0,0,1,.5-.5.5.5,0,0,1,.5.5v1.417a1.918,1.918,0,0,1-1.917,1.916Zm4.459-3.875a2.5,2.5,0,0,1-2.5-2.5v-6a2.5,2.5,0,0,1,2.5-2.5h6a2.5,2.5,0,0,1,2.5,2.5v6a2.5,2.5,0,0,1-2.5,2.5Zm-1.5-8.5v6a1.5,1.5,0,0,0,1.5,1.5h6a1.5,1.5,0,0,0,1.5-1.5v-6a1.5,1.5,0,0,0-1.5-1.5h-6A1.5,1.5,0,0,0-2681.124-1783.5Z" transform="translate(2686 1786)"/>
</svg>
