<svg xmlns="http://www.w3.org/2000/svg" width="26" height="26" viewBox="0 0 26 26">
  <defs>
    <style>
      .cls-1 {
        fill: none;
      }

      .cls-2 {
        fill: #484c50;
      }
    </style>
  </defs>
  <g id="그룹_25659" data-name="그룹 25659" transform="translate(-1733 -20)">
    <path id="패스_40" data-name="패스 40" class="cls-1" d="M0,0H26V26H0Z" transform="translate(1733 20)"/>
    <g id="그룹_1244" data-name="그룹 1244" transform="translate(1736.25 23.25)">
      <path id="합치기_14" data-name="합치기 14" class="cls-2" d="M-6923.293-8052.25a1.123,1.123,0,0,0-.658-.77,1.128,1.128,0,0,0-1.011.079,2.644,2.644,0,0,1-1.367.4,2.643,2.643,0,0,1-2.291-1.367,2.57,2.57,0,0,1,.061-2.625,1.126,1.126,0,0,0,.077-1.011,1.124,1.124,0,0,0-.768-.658,2.576,2.576,0,0,1-2-2.542,2.579,2.579,0,0,1,2-2.544,1.119,1.119,0,0,0,.77-.658,1.117,1.117,0,0,0-.079-1.009,2.569,2.569,0,0,1-.061-2.625,2.644,2.644,0,0,1,2.291-1.368,2.612,2.612,0,0,1,1.369.393,1.1,1.1,0,0,0,.579.166,1.118,1.118,0,0,0,1.088-.856,2.578,2.578,0,0,1,2.542-2,2.578,2.578,0,0,1,2.544,2,1.119,1.119,0,0,0,.658.768,1.122,1.122,0,0,0,1.009-.077,2.632,2.632,0,0,1,1.369-.4,2.645,2.645,0,0,1,2.291,1.368,2.569,2.569,0,0,1-.061,2.625,1.123,1.123,0,0,0-.079,1.009,1.118,1.118,0,0,0,.77.658,2.579,2.579,0,0,1,2,2.544,2.576,2.576,0,0,1-2,2.542,1.121,1.121,0,0,0-.77.66,1.116,1.116,0,0,0,.077,1.009,2.571,2.571,0,0,1,.063,2.625,2.648,2.648,0,0,1-2.293,1.367,2.585,2.585,0,0,1-1.367-.4,1.13,1.13,0,0,0-1.009-.077,1.119,1.119,0,0,0-.658.768,2.577,2.577,0,0,1-2.544,2A2.576,2.576,0,0,1-6923.293-8052.25Zm-.085-2.155a2.625,2.625,0,0,1,1.543,1.8,1.075,1.075,0,0,0,1.083.853,1.076,1.076,0,0,0,1.086-.853,2.628,2.628,0,0,1,1.543-1.8,2.571,2.571,0,0,1,1-.2,2.622,2.622,0,0,1,1.361.383,1.131,1.131,0,0,0,.587.174,1.155,1.155,0,0,0,.984-.6,1.056,1.056,0,0,0-.034-1.11,2.62,2.62,0,0,1-.182-2.364,2.621,2.621,0,0,1,1.8-1.542,1.075,1.075,0,0,0,.853-1.085,1.074,1.074,0,0,0-.853-1.086,2.63,2.63,0,0,1-1.8-1.543,2.628,2.628,0,0,1,.182-2.362,1.059,1.059,0,0,0,.037-1.11,1.162,1.162,0,0,0-.985-.6,1.131,1.131,0,0,0-.587.174,2.606,2.606,0,0,1-1.363.383,2.614,2.614,0,0,1-1-.2,2.631,2.631,0,0,1-1.543-1.8,1.074,1.074,0,0,0-1.086-.853,1.077,1.077,0,0,0-1.085.853,2.611,2.611,0,0,1-2.544,2,2.609,2.609,0,0,1-1.359-.383,1.127,1.127,0,0,0-.589-.176,1.16,1.16,0,0,0-.982.6,1.058,1.058,0,0,0,.034,1.11,2.62,2.62,0,0,1,.182,2.364,2.627,2.627,0,0,1-1.8,1.543,1.076,1.076,0,0,0-.855,1.086,1.077,1.077,0,0,0,.855,1.085,2.626,2.626,0,0,1,1.8,1.542,2.62,2.62,0,0,1-.182,2.364,1.058,1.058,0,0,0-.035,1.11,1.164,1.164,0,0,0,.985.6,1.111,1.111,0,0,0,.587-.176,2.622,2.622,0,0,1,1.363-.381A2.614,2.614,0,0,1-6923.378-8054.405Zm-1.372-6.344a4.005,4.005,0,0,1,4-4,4.006,4.006,0,0,1,4,4,4.006,4.006,0,0,1-4,4A4.005,4.005,0,0,1-6924.75-8060.75Zm1.5,0a2.5,2.5,0,0,0,2.5,2.5,2.5,2.5,0,0,0,2.5-2.5,2.5,2.5,0,0,0-2.5-2.5A2.5,2.5,0,0,0-6923.25-8060.75Z" transform="translate(6930.5 8070.5)"/>
    </g>
  </g>
</svg>
