<svg xmlns="http://www.w3.org/2000/svg" width="18.75" height="38.292" viewBox="0 0 18.75 38.292">
  <defs>
    <style>
      .cls-1 {
        fill: #ff6969;
      }
    </style>
  </defs>
  <path id="합치기_25" data-name="합치기 25" class="cls-1" d="M12.562,37.244V28.471a1.025,1.025,0,0,1,1-1.047h2.8L12.614,15.643a1.116,1.116,0,0,1-.051-.331,1.122,1.122,0,0,0-1.094-1.146H7.281a1.122,1.122,0,0,0-1.094,1.146,1.088,1.088,0,0,1-.051.331L2.388,27.424h2.8a1.024,1.024,0,0,1,1,1.047v8.773a1,1,0,1,1-2,0V29.518H1a.985.985,0,0,1-.811-.435,1.089,1.089,0,0,1-.138-.944L4.192,15.125a3.165,3.165,0,0,1,3.089-3.055h4.188a3.165,3.165,0,0,1,3.089,3.055L18.7,28.139a1.092,1.092,0,0,1-.137.944.987.987,0,0,1-.812.435H14.563v7.726a1,1,0,1,1-2,0ZM4.815,4.593A4.593,4.593,0,1,1,9.408,9.185,4.6,4.6,0,0,1,4.815,4.593Zm1.837,0A2.755,2.755,0,1,0,9.408,1.837,2.759,2.759,0,0,0,6.652,4.593Z"/>
</svg>
