<svg xmlns="http://www.w3.org/2000/svg" width="14.732" height="14.732" viewBox="0 0 14.732 14.732">
  <g id="그룹_180313" data-name="그룹 180313" transform="translate(0.25 0.707)">
    <path id="사각형_110401" data-name="사각형 110401" d="M2-.25H9A2.253,2.253,0,0,1,11.25,2V9A2.253,2.253,0,0,1,9,11.25H2A2.253,2.253,0,0,1-.25,9V2A2.253,2.253,0,0,1,2-.25Zm7,11A1.752,1.752,0,0,0,10.75,9V2A1.752,1.752,0,0,0,9,.25H2A1.752,1.752,0,0,0,.25,2V9A1.752,1.752,0,0,0,2,10.75Z" transform="translate(2.761 0.024)" fill="#222"/>
    <path id="패스_53919" data-name="패스 53919" d="M11.995,17.744H4.5A1.751,1.751,0,0,1,2.75,15.995V8.5A1.751,1.751,0,0,1,4.5,6.75h1.26a.25.25,0,0,1,0,.5H4.5A1.251,1.251,0,0,0,3.25,8.5v7.5A1.251,1.251,0,0,0,4.5,17.244h7.5a1.251,1.251,0,0,0,1.249-1.249V14.789a.25.25,0,0,1,.5,0v1.206A1.751,1.751,0,0,1,11.995,17.744Z" transform="translate(-3 -3.719)" fill="#222"/>
    <g id="그룹_180312" data-name="그룹 180312" transform="translate(4.235 5.3) rotate(-45)">
      <path id="선_3986" data-name="선 3986" d="M7.5.5H0A.5.5,0,0,1-.5,0,.5.5,0,0,1,0-.5H7.5A.5.5,0,0,1,8,0,.5.5,0,0,1,7.5.5Z" transform="translate(0 2.998)" fill="#222"/>
      <path id="선_3987" data-name="선 3987" d="M0,3.5a.5.5,0,0,1-.354-.146.5.5,0,0,1,0-.707l3-3a.5.5,0,0,1,.707,0,.5.5,0,0,1,0,.707l-3,3A.5.5,0,0,1,0,3.5Z" transform="translate(4.497 2.998)" fill="#222"/>
      <path id="선_3988" data-name="선 3988" d="M3,3.5a.5.5,0,0,1-.354-.146l-3-3a.5.5,0,0,1,0-.707.5.5,0,0,1,.707,0l3,3A.5.5,0,0,1,3,3.5Z" transform="translate(4.497)" fill="#222"/>
    </g>
  </g>
</svg>
