<svg id="그룹_178362" data-name="그룹 178362" xmlns="http://www.w3.org/2000/svg" width="18" height="18" viewBox="0 0 18 18">
  <path id="패스_53655" data-name="패스 53655" d="M0,0H18V18H0Z" fill="none"/>
  <g id="그룹_178363" data-name="그룹 178363" transform="translate(3.87 4.082)">
    <path id="사각형_109839" data-name="사각형 109839" d="M1-.5H9.3A1.5,1.5,0,0,1,10.8,1v.2A1.5,1.5,0,0,1,9.3,2.7H1A1.5,1.5,0,0,1-.5,1.2V1A1.5,1.5,0,0,1,1-.5ZM9.3,1.7a.5.5,0,0,0,.5-.5V1A.5.5,0,0,0,9.3.5H1A.5.5,0,0,0,.5,1v.2a.5.5,0,0,0,.5.5Z" transform="translate(0 2.766)" fill="#c16cff"/>
    <path id="선_3937" data-name="선 3937" d="M0,7.134a.5.5,0,0,1-.5-.5V0A.5.5,0,0,1,0-.5.5.5,0,0,1,.5,0V6.634A.5.5,0,0,1,0,7.134Z" transform="translate(5.149 2.783)" fill="#c16cff"/>
    <path id="패스_53656" data-name="패스 53656" d="M11.612,17.441H6.1a1.6,1.6,0,0,1-1.6-1.6V12a.5.5,0,0,1,1,0v3.843a.6.6,0,0,0,.6.6h5.51a.6.6,0,0,0,.6-.6V12a.5.5,0,0,1,1,0v3.843A1.6,1.6,0,0,1,11.612,17.441Z" transform="translate(-3.722 -7.03)" fill="#c16cff"/>
    <path id="패스_53657" data-name="패스 53657" d="M11.337,6.245a.5.5,0,0,1,0-1,.872.872,0,1,0,0-1.745h-.028c-.833,0-1.621.946-1.966,2.364a.5.5,0,0,1-.972,0C8.024,4.435,7.226,3.485,6.386,3.5H6.378a.872.872,0,1,0,0,1.745.5.5,0,0,1,0,1,1.872,1.872,0,1,1,0-3.745A2.876,2.876,0,0,1,8.857,4.3a2.876,2.876,0,0,1,2.484-1.8,1.872,1.872,0,1,1,0,3.745Z" transform="translate(-3.722 -3)" fill="#c16cff"/>
  </g>
</svg>
