<svg id="그룹_178362" data-name="그룹 178362" xmlns="http://www.w3.org/2000/svg" width="18" height="18" viewBox="0 0 18 18">
  <path id="패스_53655" data-name="패스 53655" d="M0,0H18V18H0Z" fill="none"/>
  <g id="그룹_178363" data-name="그룹 178363" transform="translate(1.87 1.838)">
    <rect id="사각형_109839" data-name="사각형 109839" width="10.299" height="2.201" rx="1" transform="translate(2 5.011)" fill="none" stroke="#c16cff" stroke-linecap="round" stroke-linejoin="round" stroke-width="1"/>
    <line id="선_3937" data-name="선 3937" y2="7.336" transform="translate(7.149 5.028)" fill="none" stroke="#c16cff" stroke-linecap="round" stroke-linejoin="round" stroke-width="1"/>
    <path id="패스_53656" data-name="패스 53656" d="M12.715,12v3.843a1.1,1.1,0,0,1-1.1,1.1H6.1a1.1,1.1,0,0,1-1.1-1.1V12" transform="translate(-1.722 -4.785)" fill="none" stroke="#c16cff" stroke-linecap="round" stroke-linejoin="round" stroke-width="1"/>
    <path id="패스_53657" data-name="패스 53657" d="M6.378,5.745A1.372,1.372,0,1,1,6.378,3c1.088-.019,2.072,1.07,2.48,2.745C9.265,4.07,10.249,2.981,11.337,3a1.372,1.372,0,1,1,0,2.745" transform="translate(-1.722 -0.755)" fill="none" stroke="#c16cff" stroke-linecap="round" stroke-linejoin="round" stroke-width="1"/>
  </g>
</svg>
