<svg id="그룹_2615" data-name="그룹 2615" xmlns="http://www.w3.org/2000/svg" width="18" height="18" viewBox="0 0 18 18">
  <path id="패스_22416" data-name="패스 22416" d="M0,0H18V18H0Z" fill="none"/>
  <path id="패스_22417" data-name="패스 22417" d="M8.5,4.5a1.5,1.5,0,1,1,3,0,5.25,5.25,0,0,1,3,4.5v2.25A3,3,0,0,0,16,13.5H4a3,3,0,0,0,1.5-2.25V9a5.25,5.25,0,0,1,3-4.5" transform="translate(-1 -0.75)" fill="none" stroke="#000" stroke-linecap="round" stroke-linejoin="round" stroke-width="1"/>
  <path id="패스_22418" data-name="패스 22418" d="M9,17v.75a2.25,2.25,0,0,0,4.5,0V17" transform="translate(-2.25 -4.25)" fill="none" stroke="#000" stroke-linecap="round" stroke-linejoin="round" stroke-width="1"/>
  <path id="패스_22419" data-name="패스 22419" d="M20.3,5.8a8.288,8.288,0,0,0-2.1-2.8" transform="translate(-4.552 -0.75)" fill="none" stroke="#000" stroke-linecap="round" stroke-linejoin="round" stroke-width="1"/>
  <path id="패스_22420" data-name="패스 22420" d="M3,5.8A8.287,8.287,0,0,1,5.094,3" transform="translate(-0.75 -0.75)" fill="none" stroke="#000" stroke-linecap="round" stroke-linejoin="round" stroke-width="1"/>
</svg>
