<svg xmlns="http://www.w3.org/2000/svg" width="32" height="32" viewBox="0 0 32 32">
  <g id="그룹_179920" data-name="그룹 179920" transform="translate(-1806 -1062)">
    <path id="패스_53816" data-name="패스 53816" d="M0,0H32V32H0Z" transform="translate(1806 1062)" fill="none" opacity="0.003"/>
    <path id="Path_6" data-name="Path 6" d="M123.009,562.387a.546.546,0,0,0-.351.15l-9.35,8.47a1.006,1.006,0,0,0-.3.752v11.014a.66.66,0,0,0,.659.661h6.182a.66.66,0,0,0,.659-.661v-6.749a.66.66,0,0,1,.659-.661h3.682a.66.66,0,0,1,.658.661v6.749a.66.66,0,0,0,.659.661h6.182a.66.66,0,0,0,.659-.661V571.755a1.009,1.009,0,0,0-.3-.753l-9.35-8.47a.549.549,0,0,0-.35-.151Z" transform="translate(1698.991 504.618)" fill="none" stroke="#1e87bd" stroke-linejoin="round" stroke-width="1.5"/>
  </g>
</svg>