<svg id="그룹_25672" data-name="그룹 25672" xmlns="http://www.w3.org/2000/svg" width="24" height="24" viewBox="0 0 24 24">
  <path id="패스_4004" data-name="패스 4004" d="M0,0H24V24H0Z" fill="none"/>
  <g id="그룹_25673" data-name="그룹 25673">
    <path id="합치기_16" data-name="합치기 16" d="M-4943-10143.5v-2a3.506,3.506,0,0,0-3.5-3.5h-4a3.505,3.505,0,0,0-3.5,3.5v2a.5.5,0,0,1-.5.5.5.5,0,0,1-.5-.5v-2a4.5,4.5,0,0,1,4.5-4.5h4a4.506,4.506,0,0,1,4.5,4.5v2a.5.5,0,0,1-.5.5A.5.5,0,0,1-4943-10143.5Zm-10-12a4.506,4.506,0,0,1,4.5-4.5,4.506,4.506,0,0,1,4.5,4.5,4.506,4.506,0,0,1-4.5,4.5A4.506,4.506,0,0,1-4953-10155.5Zm1,0a3.506,3.506,0,0,0,3.5,3.5,3.5,3.5,0,0,0,3.5-3.5,3.5,3.5,0,0,0-3.5-3.5A3.5,3.5,0,0,0-4952-10155.5Z" transform="translate(4960.5 10163.5)" fill="#222"/>
  </g>
</svg>
