<svg id="Calendar" xmlns="http://www.w3.org/2000/svg" width="32" height="32" viewBox="0 0 32 32">
  <rect id="base" width="32" height="32" fill="none"/>
  <g id="그룹_180275" data-name="그룹 180275" transform="translate(-8897 5729)">
    <path id="합치기_100" data-name="합치기 100" d="M2,18a2,2,0,0,1-2-2V6A2,2,0,0,1,2,4H3V3A1,1,0,0,1,5,3V4h6V3a1,1,0,1,1,2,0V4h1a2,2,0,0,1,2,2V16a2,2,0,0,1-2,2ZM1,16a1,1,0,0,0,1,1H14a1,1,0,0,0,1-1V8.75H1ZM15,8.25V6a1,1,0,0,0-1-1H13V6a1,1,0,1,1-2,0V5H5V6A1,1,0,0,1,3,6V5H2A1,1,0,0,0,1,6V8.25ZM6,15V13H8v2ZM3,15V13H5v2Zm9-3V10h2v2ZM9,12V10h2v2ZM6,12V10H8v2ZM3,12V10H5v2Z" transform="translate(8905 -5723)" fill="#898d9c"/>
  </g>
</svg>
